<svg width="60" height="60" viewBox="0 0 60 60" fill="none" xmlns="http://www.w3.org/2000/svg">
<g clip-path="url(#clip0_3120_3843)">
<path d="M19.4119 25.2941H26.4707V51.1765H19.4119V25.2941Z" fill="#A4FCC4"/>
<path d="M47.647 18.2353H54.7058V51.1765H47.647V18.2353Z" fill="#A4FCC4"/>
<path d="M58.8235 50H41.7647V32.353C41.7647 31.7032 41.2379 31.1765 40.5882 31.1765H33.5294C32.8798 31.1765 32.3529 31.7032 32.3529 32.353V50H13.5294V35.8824C13.5294 35.2326 13.0026 34.7059 12.3529 34.7059H5.29412C4.64447 34.7059 4.11765 35.2326 4.11765 35.8824V50H1.17647C0.526706 50 0 50.5268 0 51.1765V55.8824C0 56.5322 0.526706 57.0589 1.17647 57.0589H58.8235C59.4732 57.0589 60 56.5322 60 55.8824V51.1765C60 50.5268 59.4732 50 58.8235 50ZM34.7059 33.5295H39.4118V50H34.7059V33.5295ZM6.47059 37.0589H11.1765V50H6.47059V37.0589ZM57.6471 54.7059H2.35294V52.353H57.6471V54.7059Z" fill="#020288"/>
<path d="M8.8236 28.8235C11.3142 28.8235 13.0325 26.2939 12.0971 23.977L20.8405 16.9519C22.3157 18.0481 24.3815 17.8261 25.5958 16.4396L33.5922 21.1048C33.1771 23.2914 34.8623 25.2941 37.0589 25.2941C39.005 25.2941 40.5883 23.7108 40.5883 21.7647C40.5883 21.1127 40.4098 20.5018 40.1003 19.977L49.7883 9.71505C52.0997 10.7079 54.706 9.00799 54.706 6.47057C54.706 4.52446 53.1227 2.94116 51.1765 2.94116C49.2304 2.94116 47.6471 4.52446 47.6471 6.47057C47.6471 7.06634 47.7961 7.62775 48.0578 8.12046L38.2967 18.4599C37.1402 18.0253 35.789 18.2167 34.7791 19.0733L26.4678 14.2243C26.5278 12.2196 24.9141 10.5882 22.9412 10.5882C20.6447 10.5882 18.9502 12.7615 19.522 14.993L10.5387 22.2109C10.0305 21.9272 9.44584 21.7647 8.8236 21.7647C6.87748 21.7647 5.29419 23.348 5.29419 25.2941C5.29419 27.2402 6.87748 28.8235 8.8236 28.8235ZM51.1765 5.2941C51.8253 5.2941 52.353 5.82187 52.353 6.47057C52.353 7.11928 51.8253 7.64704 51.1765 7.64704C50.5278 7.64704 50.0001 7.11928 50.0001 6.47057C50.0001 5.82187 50.5278 5.2941 51.1765 5.2941ZM37.0589 20.5882C37.7036 20.5882 38.2354 21.1119 38.2354 21.7647C38.2354 22.4134 37.7076 22.9412 37.0589 22.9412C36.4102 22.9412 35.8824 22.4134 35.8824 21.7647C35.8824 21.116 36.4102 20.5882 37.0589 20.5882ZM22.9412 12.9412C23.59 12.9412 24.1177 13.4689 24.1177 14.1176C24.1177 14.7663 23.59 15.2941 22.9412 15.2941C22.2925 15.2941 21.7648 14.7663 21.7648 14.1176C21.7648 13.4689 22.2925 12.9412 22.9412 12.9412ZM8.8236 24.1176C9.47231 24.1176 10.0001 24.6454 10.0001 25.2941C10.0001 25.9428 9.47231 26.4706 8.8236 26.4706C8.1749 26.4706 7.64713 25.9428 7.64713 25.2941C7.64713 24.6454 8.1749 24.1176 8.8236 24.1176Z" fill="#020288"/>
</g>
<defs>
<clipPath id="clip0_3120_3843">
<rect width="60" height="60" fill="white"/>
</clipPath>
</defs>
</svg>
