<svg width="60" height="60" viewBox="0 0 60 60" fill="none" xmlns="http://www.w3.org/2000/svg">
<g clip-path="url(#clip0_3112_5665)">
<path d="M58.0471 15.1178H54.0168V44.1005C54.0168 45.1796 53.1425 46.0544 52.064 46.0544H8.35156V50.087C8.35156 51.1662 9.2259 52.0409 10.3044 52.0409H58.0471C59.1256 52.0409 59.9999 51.1661 59.9999 50.087V17.0717C59.9999 15.9926 59.1256 15.1178 58.0471 15.1178Z" fill="#E2C4FF"/>
<path d="M1.17188 14.8171H54.0169V22.2405H1.17188V14.8171Z" fill="#E2C4FF"/>
<path d="M13.0326 39.3132C16.1035 39.3132 18.593 36.8223 18.593 33.7495C18.593 30.6768 16.1035 28.1858 13.0326 28.1858C9.96166 28.1858 7.47217 30.6768 7.47217 33.7495C7.47217 36.8223 9.96166 39.3132 13.0326 39.3132Z" fill="#E2C4FF"/>
<path d="M52.0635 7.95923H3.12516C1.40191 7.95923 0 9.36126 0 11.0845V44.101C0 45.8243 1.40191 47.2262 3.12516 47.2262H52.0635C53.7867 47.2262 55.1886 45.8243 55.1886 44.101V11.0845C55.1887 9.36126 53.7867 7.95923 52.0635 7.95923ZM52.845 44.101C52.845 44.5319 52.4945 44.8824 52.0636 44.8824H3.12516C2.69426 44.8824 2.34375 44.5318 2.34375 44.101V11.0845C2.34375 10.6536 2.69426 10.3031 3.12516 10.3031H52.0635C52.4944 10.3031 52.8449 10.6537 52.8449 11.0845V44.101H52.845Z" fill="#000077"/>
<path d="M47.7475 27.3032H28.7441C28.0969 27.3032 27.5723 27.8279 27.5723 28.4751C27.5723 29.1223 28.0969 29.647 28.7441 29.647H47.7476C48.3948 29.647 48.9195 29.1223 48.9195 28.4751C48.9195 27.8279 48.3947 27.3032 47.7475 27.3032Z" fill="#000077"/>
<path d="M47.7478 32.5776H34.6104C33.9631 32.5776 33.4385 33.1023 33.4385 33.7495C33.4385 34.3967 33.9631 34.9214 34.6104 34.9214H47.7478C48.395 34.9214 48.9197 34.3967 48.9197 33.7495C48.9197 33.1023 48.395 32.5776 47.7478 32.5776Z" fill="#000077"/>
<path d="M47.7478 37.8524H34.6104C33.9631 37.8524 33.4385 38.3771 33.4385 39.0243C33.4385 39.6715 33.9631 40.1962 34.6104 40.1962H47.7478C48.395 40.1962 48.9197 39.6715 48.9197 39.0243C48.9197 38.3771 48.395 37.8524 47.7478 37.8524Z" fill="#000077"/>
</g>
<defs>
<clipPath id="clip0_3112_5665">
<rect width="60" height="60" fill="white"/>
</clipPath>
</defs>
</svg>
