<svg width="60" height="60" viewBox="0 0 60 60" fill="none" xmlns="http://www.w3.org/2000/svg">
<g clip-path="url(#clip0_3112_5679)">
<path d="M21.6794 50.8415C28.6734 50.8415 34.3431 45.1718 34.3431 38.1778C34.3431 31.1838 28.6734 25.514 21.6794 25.514C14.6854 25.514 9.01562 31.1838 9.01562 38.1778C9.01562 45.1718 14.6854 50.8415 21.6794 50.8415Z" fill="#A4FCC4"/>
<path d="M23.365 37.2145C23.2144 37.1613 23.0705 37.11 22.9328 37.0605V33.888C23.2465 34.0079 23.4663 34.1786 23.5815 34.3429C23.9532 34.8729 24.6841 35.0009 25.2139 34.6292C25.7437 34.2575 25.8719 33.5266 25.5002 32.9968C24.9985 32.282 24.1011 31.6816 22.9328 31.4679V31.3381C22.9328 30.691 22.408 30.1663 21.7609 30.1663C21.1138 30.1663 20.589 30.691 20.589 31.3381V31.5533C20.4538 31.5853 20.3169 31.622 20.1784 31.6637C18.8051 32.0772 17.7687 33.4097 17.6578 34.9039C17.548 36.3828 18.3339 37.6672 19.7597 38.3396C19.9453 38.4272 20.2295 38.5459 20.589 38.6871V42.5366C20.1212 42.3767 19.6994 42.129 19.4171 41.7785C19.0111 41.2743 18.2733 41.195 17.7694 41.6008C17.2652 42.0069 17.1859 42.7446 17.5917 43.2486C18.3612 44.2039 19.4851 44.7265 20.5889 44.959V45.0174C20.5889 45.6645 21.1137 46.1893 21.7608 46.1893C22.3984 46.1893 22.9172 45.6799 22.9323 45.0458C24.8774 44.7573 26.2501 43.5044 26.4688 41.7831C26.7172 39.8271 25.4409 37.9484 23.365 37.2145ZM19.9951 35.0774C20.0264 34.6555 20.2659 34.2514 20.5889 34.0352V36.1298C20.1616 35.8765 19.9621 35.5231 19.9951 35.0774ZM24.1437 41.4879C24.0705 42.0643 23.6379 42.4756 22.9326 42.6596V39.5721C23.8694 40.0408 24.2231 40.8633 24.1437 41.4879Z" fill="#000077"/>
<path d="M58.8281 38.0973H43.3559C43.2804 34.728 41.7379 30.0943 39.0971 25.3249C36.8633 21.2903 34.1082 17.6297 31.3379 14.9766C31.6697 14.7696 31.8905 14.4014 31.8905 13.9816V7.58297C31.8905 6.93586 31.3657 6.41109 30.7186 6.41109H29.111C29.1637 6.34219 29.2153 6.27469 29.2651 6.20977C30.4591 4.65105 31.8124 2.88434 32.2107 1.49473C32.312 1.14094 32.2414 0.760312 32.02 0.466641C31.7986 0.172852 31.4521 0 31.0841 0H12.2746C11.9066 0 11.5601 0.172852 11.3387 0.466523C11.1173 0.760312 11.0468 1.14105 11.148 1.49461C11.5462 2.8841 12.8994 4.65082 14.0933 6.2093C14.1431 6.27434 14.1949 6.34195 14.2477 6.41098H12.6402C11.9931 6.41098 11.4683 6.93574 11.4683 7.58285V13.9815C11.4683 14.4056 11.6937 14.7771 12.0312 14.9829C9.26121 17.6402 6.50402 21.3074 4.26574 25.3498C1.55484 30.2459 0 34.9855 0 38.3538C0 44.454 2.16762 49.9775 6.10371 53.9072C10.0391 57.8361 15.5707 60 21.6793 60C28.4434 60 34.3165 57.4228 38.2677 52.8232V58.8281C38.2677 59.4752 38.7925 60 39.4396 60H58.8281C59.4752 60 60 59.4752 60 58.8281V39.2692C60 38.622 59.4752 38.0973 58.8281 38.0973ZM40.6114 46.9607H57.6562V51.1365H40.6114V46.9607ZM57.6562 44.6169H40.6114V40.4409H57.6562V44.6169ZM15.954 4.78418C15.3902 4.04824 14.7043 3.1527 14.1778 2.34375H29.181C28.6545 3.15281 27.9683 4.04848 27.4045 4.78453C26.8688 5.48402 26.478 5.99848 26.2064 6.41109H17.1523C16.8806 5.99848 16.4898 5.48391 15.954 4.78418ZM13.8121 8.75484H29.5467V12.8098H13.8121V8.75484ZM21.6793 57.6562C10.2949 57.6562 2.34375 49.7189 2.34375 38.3538C2.34375 35.4143 3.82875 30.9775 6.31605 26.4852C8.87027 21.8725 12.107 17.7997 15.1961 15.3115C15.2561 15.2632 15.3098 15.2101 15.3578 15.1534H23.2495L21.5452 18.0444C21.2164 18.602 21.402 19.3205 21.9594 19.6491C22.5171 19.9779 23.2356 19.7921 23.5641 19.2348L24.9196 16.9356L27.8299 23.3664C28.0259 23.7993 28.4521 24.0554 28.8982 24.0554C29.0598 24.0553 29.224 24.0218 29.3807 23.9508C29.9702 23.6839 30.232 22.9896 29.9651 22.4L26.6855 15.1534H28.0145C28.062 15.2093 28.1153 15.2616 28.1746 15.3093C31.2647 17.7933 34.4985 21.8577 37.0466 26.46C39.4976 30.887 40.9327 35.1061 41.0114 38.0972H39.4393C38.7922 38.0972 38.2675 38.622 38.2675 39.2691V48.8258C34.9078 54.4385 28.8653 57.6562 21.6793 57.6562ZM57.6562 57.6562H40.6114V53.4803H57.6562V57.6562Z" fill="#000077"/>
</g>
<defs>
<clipPath id="clip0_3112_5679">
<rect width="60" height="60" fill="white"/>
</clipPath>
</defs>
</svg>
