<svg width="60" height="60" viewBox="0 0 60 60" fill="none" xmlns="http://www.w3.org/2000/svg">
<g clip-path="url(#clip0_3112_5738)">
<path d="M21.2613 23.057C20.8552 22.5531 20.1177 22.4736 19.6135 22.8796C19.1095 23.2855 19.03 24.0234 19.4361 24.5274C20.2871 25.5838 21.5429 26.1477 22.7659 26.3884V26.5517C22.8279 28.1065 25.0482 28.1053 25.1096 26.5517V26.4791C30.4856 25.7237 30.0167 19.5327 25.6658 18.0647C25.4704 17.9957 25.2854 17.9296 25.1096 17.8663V14.1225C25.5675 14.2633 25.8863 14.496 26.0424 14.7184C26.4141 15.2481 27.1449 15.3759 27.675 15.0044C28.2048 14.6325 28.3327 13.9016 27.9609 13.3718C27.4101 12.5871 26.4117 11.9328 25.1096 11.7197V11.4754C25.0476 9.92054 22.8273 9.92171 22.7659 11.4754V11.8084C22.5893 11.8477 22.4101 11.894 22.228 11.9488C19.0011 12.9903 18.462 17.6052 21.783 19.0838C21.9985 19.1855 22.3366 19.326 22.7659 19.4935V23.9792C22.1677 23.7994 21.6184 23.5002 21.2613 23.057ZM26.6827 22.6768C26.5902 23.4052 26.0246 23.9098 25.1096 24.1033V20.3636C26.3233 20.8871 26.7804 21.9084 26.6827 22.6768ZM21.8724 15.5877C21.9152 15.0106 22.2891 14.4614 22.766 14.2462V16.9553C21.9731 16.5737 21.8416 16.002 21.8724 15.5877Z" fill="#000077"/>
<path d="M42.4365 25.9483C43.0836 25.9483 43.6084 25.4235 43.6084 24.7764V2.6247C43.6084 2.17013 43.3455 1.75669 42.9341 1.56369L39.8356 0.110796C39.5203 -0.0370947 39.1557 -0.0370947 38.8406 0.110796L34.273 2.25251L29.7056 0.110796C29.3905 -0.0370947 29.0259 -0.0370947 28.7106 0.110796L24.1434 2.2524L19.5771 0.110796C19.262 -0.0370947 18.8973 -0.0370947 18.5819 0.110796L14.0148 2.25251L9.4474 0.110796C9.13228 -0.0370947 8.76771 -0.0370947 8.45236 0.110796L5.28221 1.59744C4.87076 1.79033 4.60791 2.20388 4.60791 2.65845V57.3752C4.60791 57.8297 4.87076 58.2432 5.28232 58.4362L8.38064 59.8891C8.696 60.037 9.06057 60.037 9.37568 59.8891L13.9433 57.7475L18.5107 59.8891C18.8258 60.037 19.1904 60.037 19.5057 59.8891L24.0729 57.7475L28.6394 59.8891C28.9547 60.037 29.3194 60.037 29.6346 59.8891L34.2016 57.7475L38.7689 59.8891C39.0842 60.037 39.4487 60.037 39.764 59.8891L42.9342 58.4024C43.3456 58.2095 43.6085 57.796 43.6085 57.3414V39.9963C43.5465 38.4414 41.3261 38.4426 41.2647 39.9963V56.5967L39.2665 57.5337L34.6991 55.3921C34.384 55.2442 34.0194 55.2442 33.704 55.3921L29.137 57.5337L24.5704 55.3921C24.2551 55.2442 23.8906 55.2442 23.5753 55.3921L19.0081 57.5337L14.4408 55.3921C14.1256 55.2442 13.761 55.2442 13.4458 55.3921L8.87822 57.5337L6.95166 56.6303V3.40318L8.94994 2.46615L13.5173 4.60775C13.8324 4.75564 14.197 4.75564 14.5124 4.60775L19.0795 2.46615L23.646 4.60775C23.9611 4.75564 24.3258 4.75564 24.6411 4.60775L29.2083 2.46615L33.7755 4.60775C34.0909 4.75564 34.4554 4.75564 34.7706 4.60775L39.3382 2.46615L41.2647 3.36955V24.7764C41.2646 25.4235 41.7894 25.9483 42.4365 25.9483Z" fill="#000077"/>
<path d="M34.4403 33.9666H13.776C12.2212 34.0285 12.2224 36.2489 13.776 36.3103H34.4403C35.9951 36.2483 35.994 34.028 34.4403 33.9666Z" fill="#000077"/>
<path d="M35.6122 40.6089C35.6122 39.9618 35.0874 39.437 34.4403 39.437H13.776C12.2212 39.499 12.2224 41.7194 13.776 41.7808H34.4403C35.0874 41.7808 35.6122 41.2561 35.6122 40.6089Z" fill="#000077"/>
<path d="M19.8522 44.9078C18.2974 44.9698 18.2985 47.1902 19.8522 47.2516H28.3639C29.9187 47.1896 29.9176 44.9692 28.3639 44.9078H19.8522Z" fill="#000077"/>
<path d="M42.4366 46.5802C49.5921 46.5802 55.3927 40.7796 55.3927 33.6241C55.3927 26.4686 49.5921 20.668 42.4366 20.668C35.2811 20.668 29.4805 26.4686 29.4805 33.6241C29.4805 40.7796 35.2811 46.5802 42.4366 46.5802Z" fill="#FFF59B"/>
<path d="M45.4152 26.4641C44.8186 26.2132 44.1318 26.4945 43.8812 27.0913L38.9891 38.749C38.7386 39.3457 39.0194 40.0325 39.6163 40.283C40.1982 40.5318 40.8998 40.2587 41.1503 39.6558L46.0424 27.9981C46.2928 27.4014 46.012 26.7145 45.4152 26.4641Z" fill="#000077"/>
<path d="M42.4665 29.5135C42.4665 27.4822 40.9711 25.8296 39.133 25.8296C34.7114 26.0295 34.7129 32.9983 39.133 33.1974C40.9711 33.1974 42.4665 31.5448 42.4665 29.5135ZM38.1432 29.5135C38.1432 28.7872 38.5964 28.1733 39.1329 28.1733C39.6694 28.1733 40.1227 28.7871 40.1227 29.5135C40.1227 30.2399 39.6694 30.8538 39.1329 30.8538C38.5964 30.8538 38.1432 30.2399 38.1432 29.5135Z" fill="#000077"/>
<path d="M45.7403 33.8002C43.902 33.8002 42.4067 35.4529 42.4067 37.4842C42.5908 42.3717 48.8901 42.3706 49.0738 37.4842C49.0737 35.4528 47.5782 33.8002 45.7403 33.8002ZM45.7403 38.8244C45.2038 38.8244 44.7505 38.2106 44.7505 37.4841C44.7505 36.7575 45.2038 36.1438 45.7403 36.1438C46.2767 36.1438 46.7299 36.7575 46.7299 37.4841C46.7299 38.2106 46.2767 38.8244 45.7403 38.8244Z" fill="#000077"/>
</g>
<defs>
<clipPath id="clip0_3112_5738">
<rect width="60" height="60" fill="white"/>
</clipPath>
</defs>
</svg>
