<svg width="60" height="60" viewBox="0 0 60 60" fill="none" xmlns="http://www.w3.org/2000/svg">
<g clip-path="url(#clip0_3230_5368)">
<path d="M38 56.1392C45.0917 56.1392 50.8406 50.3903 50.8406 43.2986C50.8406 36.2069 45.0917 30.458 38 30.458C30.9084 30.458 25.1594 36.2069 25.1594 43.2986C25.1594 50.3903 30.9084 56.1392 38 56.1392Z" fill="#A4FCC4"/>
<path d="M55.8762 29.2095H46.2342V5.52213C46.2342 3.91772 44.9287 2.61237 43.3243 2.61237H2.90988C1.30547 2.61237 0 3.91772 0 5.52213V34.8983C0 36.5029 1.30547 37.8082 2.90988 37.8082H16.0003V53.2639C16.0003 55.5378 17.8502 57.3877 20.1241 57.3877H55.8762C58.1501 57.3877 60 55.5378 60 53.2639V33.3333C60 31.0594 58.1501 29.2095 55.8762 29.2095ZM2.34375 10.0151H43.8904V14.2763H2.34375V10.0151ZM2.90988 4.95612H43.3242C43.6364 4.95612 43.8904 5.21006 43.8904 5.52213V7.67135H2.34375V5.52213C2.34375 5.21006 2.5977 4.95612 2.90988 4.95612ZM2.90988 35.4645C2.5977 35.4645 2.34375 35.2105 2.34375 34.8983V16.62H43.8904V29.2095H20.1243C17.8504 29.2095 16.0004 31.0594 16.0004 33.3333V35.4645H2.90988ZM57.6562 53.2639C57.6562 54.2454 56.8577 55.0439 55.8762 55.0439H20.1243C19.1427 55.0439 18.3442 54.2454 18.3442 53.2639V33.3333C18.3442 32.3517 19.1427 31.5532 20.1243 31.5532H55.8762C56.8577 31.5532 57.6562 32.3517 57.6562 33.3333V53.2639Z" fill="#020288"/>
<path d="M39.3037 42.316C39.2126 42.2837 39.1244 42.2523 39.0387 42.2217V39.857C39.1606 39.9284 39.2499 40.0087 39.304 40.0858C39.6757 40.6156 40.4064 40.7439 40.9364 40.3718C41.4662 40.0001 41.5943 39.2693 41.2225 38.7394C40.7878 38.1198 40.0264 37.5948 39.0385 37.3821C39.0276 36.7444 38.5073 36.2307 37.8668 36.2307C37.2197 36.2307 36.695 36.7554 36.695 37.4025V37.4616C36.6159 37.482 36.5362 37.5042 36.4559 37.5284C35.2095 37.9039 34.2691 39.1112 34.1686 40.4645C34.0688 41.8088 34.7807 42.9751 36.0728 43.5844C36.2172 43.6525 36.4293 43.742 36.695 43.8476V46.8174C36.4026 46.6907 36.1482 46.5194 35.9724 46.301C35.5661 45.7971 34.8285 45.7177 34.3245 46.1235C33.8205 46.5296 33.741 47.2673 34.1469 47.7714C34.8067 48.5904 35.7548 49.0537 36.6975 49.2737C36.7382 49.8839 37.2461 50.3665 37.8667 50.3665C38.4582 50.3665 38.9473 49.9281 39.0271 49.3586C40.7105 49.0643 41.8923 47.948 42.0856 46.4268C42.3094 44.6644 41.1654 42.974 39.3037 42.316ZM36.5059 40.6378C36.5198 40.4519 36.5901 40.2679 36.695 40.1159V41.2017C36.5517 41.046 36.4895 40.8592 36.5059 40.6378ZM39.7606 46.1316C39.7136 46.5013 39.4587 46.7809 39.0387 46.9409V44.7808C39.6011 45.1568 39.8148 45.705 39.7606 46.1316Z" fill="#020288"/>
<path d="M22.6686 33.53H21.4543C20.8072 33.53 20.2825 34.0547 20.2825 34.7018C20.2825 35.349 20.8072 35.8737 21.4543 35.8737H22.6686C23.3158 35.8737 23.8405 35.349 23.8405 34.7018C23.8405 34.0547 23.3159 33.53 22.6686 33.53Z" fill="#020288"/>
<path d="M54.5458 33.53H53.3315C52.6844 33.53 52.1597 34.0547 52.1597 34.7018C52.1597 35.349 52.6844 35.8737 53.3315 35.8737H54.5458C55.1929 35.8737 55.7177 35.349 55.7177 34.7018C55.7177 34.0547 55.1929 33.53 54.5458 33.53Z" fill="#020288"/>
<path d="M22.6686 50.7235H21.4543C20.8072 50.7235 20.2825 51.2483 20.2825 51.8954C20.2825 52.5425 20.8072 53.0673 21.4543 53.0673H22.6686C23.3158 53.0673 23.8405 52.5425 23.8405 51.8954C23.8405 51.2483 23.3159 50.7235 22.6686 50.7235Z" fill="#020288"/>
<path d="M54.5458 50.7235H53.3315C52.6844 50.7235 52.1597 51.2483 52.1597 51.8954C52.1597 52.5425 52.6844 53.0673 53.3315 53.0673H54.5458C55.1929 53.0673 55.7177 52.5425 55.7177 51.8954C55.7177 51.2483 55.1929 50.7235 54.5458 50.7235Z" fill="#020288"/>
<path d="M17.8444 25.6884C17.8444 22.3126 15.0993 19.5663 11.7251 19.5663C8.35096 19.5663 5.60596 22.3126 5.60596 25.6884C5.60596 29.0642 8.35107 31.8105 11.7253 31.8105C15.0994 31.8105 17.8444 29.0642 17.8444 25.6884ZM11.7253 29.4668C9.64342 29.4668 7.94971 27.7718 7.94971 25.6884C7.94971 23.605 9.64342 21.91 11.7253 21.91C13.8071 21.91 15.5008 23.605 15.5008 25.6884C15.5008 27.7718 13.807 29.4668 11.7253 29.4668Z" fill="#020288"/>
<path d="M22.5762 22.1672H39.4842C40.1313 22.1672 40.6561 21.6424 40.6561 20.9953C40.6561 20.3482 40.1313 19.8234 39.4842 19.8234H22.5762C21.9291 19.8234 21.4043 20.3482 21.4043 20.9953C21.4043 21.6424 21.9291 22.1672 22.5762 22.1672Z" fill="#020288"/>
<path d="M39.4843 24.5164H27.7954C27.1483 24.5164 26.6235 25.0412 26.6235 25.6883C26.6235 26.3354 27.1483 26.8602 27.7954 26.8602H39.4843C40.1314 26.8602 40.6562 26.3354 40.6562 25.6883C40.6562 25.0412 40.1314 24.5164 39.4843 24.5164Z" fill="#020288"/>
</g>
<defs>
<clipPath id="clip0_3230_5368">
<rect width="60" height="60" fill="white"/>
</clipPath>
</defs>
</svg>
