<svg width="60" height="60" viewBox="0 0 60 60" fill="none" xmlns="http://www.w3.org/2000/svg">
<g clip-path="url(#clip0_3422_4255)">
<path d="M38.0003 56.1392C45.0919 56.1392 50.8408 50.3903 50.8408 43.2986C50.8408 36.2069 45.0919 30.458 38.0003 30.458C30.9086 30.458 25.1597 36.2069 25.1597 43.2986C25.1597 50.3903 30.9086 56.1392 38.0003 56.1392Z" fill="#A4FCC4"/>
<path d="M55.8762 29.2094H46.2342V5.52207C46.2342 3.91766 44.9287 2.6123 43.3243 2.6123H2.90988C1.30547 2.6123 0 3.91766 0 5.52207V34.8983C0 36.5028 1.30547 37.8082 2.90988 37.8082H16.0003V53.2638C16.0003 55.5377 17.8502 57.3876 20.1241 57.3876H55.8762C58.1501 57.3876 60 55.5377 60 53.2638V33.3332C60 31.0593 58.1501 29.2094 55.8762 29.2094ZM2.34375 10.015H43.8904V14.2762H2.34375V10.015ZM2.90988 4.95605H43.3242C43.6364 4.95605 43.8904 5.21 43.8904 5.52207V7.67129H2.34375V5.52207C2.34375 5.21 2.5977 4.95605 2.90988 4.95605ZM2.90988 35.4644C2.5977 35.4644 2.34375 35.2105 2.34375 34.8983V16.62H43.8904V29.2094H20.1243C17.8504 29.2094 16.0004 31.0593 16.0004 33.3332V35.4644H2.90988ZM57.6562 53.2638C57.6562 54.2454 56.8577 55.0439 55.8762 55.0439H20.1243C19.1427 55.0439 18.3442 54.2454 18.3442 53.2638V33.3332C18.3442 32.3517 19.1427 31.5532 20.1243 31.5532H55.8762C56.8577 31.5532 57.6562 32.3517 57.6562 33.3332V53.2638Z" fill="#020288"/>
<path d="M39.3037 42.3159C39.2126 42.2837 39.1244 42.2523 39.0387 42.2217V39.857C39.1606 39.9283 39.2499 40.0086 39.304 40.0857C39.6757 40.6155 40.4064 40.7438 40.9364 40.3718C41.4662 40 41.5943 39.2693 41.2225 38.7393C40.7878 38.1198 40.0264 37.5948 39.0385 37.3821C39.0276 36.7443 38.5073 36.2306 37.8668 36.2306C37.2197 36.2306 36.695 36.7554 36.695 37.4025V37.4615C36.6159 37.4819 36.5362 37.5042 36.4559 37.5283C35.2095 37.9038 34.2691 39.1112 34.1686 40.4645C34.0688 41.8087 34.7807 42.9751 36.0728 43.5843C36.2172 43.6524 36.4293 43.742 36.695 43.8475V46.8173C36.4026 46.6906 36.1482 46.5193 35.9724 46.301C35.5661 45.7971 34.8285 45.7176 34.3245 46.1234C33.8205 46.5295 33.741 47.2672 34.1469 47.7713C34.8067 48.5904 35.7548 49.0536 36.6975 49.2737C36.7382 49.8839 37.2461 50.3665 37.8667 50.3665C38.4582 50.3665 38.9473 49.9281 39.0271 49.3585C40.7105 49.0643 41.8923 47.9479 42.0856 46.4267C42.3094 44.6643 41.1654 42.9739 39.3037 42.3159ZM36.5059 40.6378C36.5198 40.4518 36.5901 40.2678 36.695 40.1158V41.2017C36.5517 41.0459 36.4895 40.8591 36.5059 40.6378ZM39.7606 46.1315C39.7136 46.5013 39.4587 46.7809 39.0387 46.9408V44.7807C39.6011 45.1568 39.8148 45.705 39.7606 46.1315Z" fill="#020288"/>
<path d="M22.6684 33.5298H21.4541C20.807 33.5298 20.2822 34.0546 20.2822 34.7017C20.2822 35.3488 20.807 35.8735 21.4541 35.8735H22.6684C23.3155 35.8735 23.8403 35.3488 23.8403 34.7017C23.8403 34.0546 23.3156 33.5298 22.6684 33.5298Z" fill="#020288"/>
<path d="M54.5463 33.5298H53.332C52.6849 33.5298 52.1602 34.0546 52.1602 34.7017C52.1602 35.3488 52.6849 35.8735 53.332 35.8735H54.5463C55.1934 35.8735 55.7182 35.3488 55.7182 34.7017C55.7182 34.0546 55.1934 33.5298 54.5463 33.5298Z" fill="#020288"/>
<path d="M22.6684 50.7234H21.4541C20.807 50.7234 20.2822 51.2482 20.2822 51.8953C20.2822 52.5424 20.807 53.0671 21.4541 53.0671H22.6684C23.3155 53.0671 23.8403 52.5424 23.8403 51.8953C23.8403 51.2482 23.3156 50.7234 22.6684 50.7234Z" fill="#020288"/>
<path d="M54.5463 50.7234H53.332C52.6849 50.7234 52.1602 51.2482 52.1602 51.8953C52.1602 52.5424 52.6849 53.0671 53.332 53.0671H54.5463C55.1934 53.0671 55.7182 52.5424 55.7182 51.8953C55.7182 51.2482 55.1934 50.7234 54.5463 50.7234Z" fill="#020288"/>
<path d="M17.8444 25.6883C17.8444 22.3125 15.0993 19.5662 11.7251 19.5662C8.35096 19.5662 5.60596 22.3125 5.60596 25.6883C5.60596 29.0641 8.35107 31.8104 11.7253 31.8104C15.0994 31.8104 17.8444 29.0641 17.8444 25.6883ZM11.7253 29.4666C9.64342 29.4666 7.94971 27.7716 7.94971 25.6883C7.94971 23.6049 9.64342 21.9099 11.7253 21.9099C13.8071 21.9099 15.5008 23.6049 15.5008 25.6883C15.5008 27.7716 13.807 29.4666 11.7253 29.4666Z" fill="#020288"/>
<path d="M22.5762 22.1671H39.4842C40.1313 22.1671 40.6561 21.6423 40.6561 20.9952C40.6561 20.3481 40.1313 19.8234 39.4842 19.8234H22.5762C21.9291 19.8234 21.4043 20.3481 21.4043 20.9952C21.4043 21.6423 21.9291 22.1671 22.5762 22.1671Z" fill="#020288"/>
<path d="M39.4843 24.5164H27.7954C27.1483 24.5164 26.6235 25.0411 26.6235 25.6882C26.6235 26.3353 27.1483 26.8601 27.7954 26.8601H39.4843C40.1314 26.8601 40.6562 26.3353 40.6562 25.6882C40.6562 25.0411 40.1314 24.5164 39.4843 24.5164Z" fill="#020288"/>
</g>
<defs>
<clipPath id="clip0_3422_4255">
<rect width="60" height="60" fill="white"/>
</clipPath>
</defs>
</svg>
