<svg width="60" height="60" viewBox="0 0 60 60" fill="none" xmlns="http://www.w3.org/2000/svg">
<g id="decision 1">
<g id="Group">
<g id="Group_2">
<path id="Vector" fill-rule="evenodd" clip-rule="evenodd" d="M45.8191 27.9682L55.9462 20.1865L45.8191 12.4014V16.7058H33.4788V10.1271H37.7832L30.0013 0L22.2162 10.1271H26.5206V16.7057H14.1803V12.4012L4.05322 20.1865L14.1803 27.9682V23.6638H26.5206V29.8289C27.6357 29.5577 28.8016 29.4121 30.0015 29.4121C31.1978 29.4121 32.3637 29.5578 33.4789 29.8289V23.6638H45.8192V27.9682H45.8191Z" fill="#E2C4FF"/>
</g>
<g id="Group_3">
<path id="Vector_2" d="M30.0016 60C21.2442 60 14.1196 52.877 14.1196 44.1215C14.1196 35.364 21.2442 28.2395 30.0016 28.2395C38.757 28.2395 45.88 35.364 45.88 44.1215C45.88 52.877 38.757 60 30.0016 60ZM30.0016 30.5845C22.5373 30.5845 16.4648 36.6572 16.4648 44.1213C16.4648 51.5837 22.5374 57.6549 30.0016 57.6549C37.4639 57.6549 43.535 51.5837 43.535 44.1213C43.535 36.6572 37.4639 30.5845 30.0016 30.5845Z" fill="#020288"/>
</g>
<path id="Vector (Stroke)" fill-rule="evenodd" clip-rule="evenodd" d="M30.032 51.8831C30.6796 51.8831 31.2046 52.4081 31.2046 53.0558V53.0625C31.2046 53.7102 30.6796 54.2352 30.032 54.2352C29.3844 54.2352 28.8594 53.7102 28.8594 53.0625V53.0558C28.8594 52.4081 29.3844 51.8831 30.032 51.8831Z" fill="#020288"/>
<g id="Group_4">
<path id="Vector_3" d="M30.0013 48.7781C29.3538 48.7781 28.8288 48.2533 28.8288 47.6056V43.3384C28.8288 42.6908 29.3536 42.1658 30.0013 42.1658C30.8063 42.1658 31.5551 41.844 32.1096 41.26C32.6638 40.6763 32.9461 39.9098 32.9041 39.1016C32.8243 37.5897 31.575 36.3818 30.0603 36.3529C30.0395 36.3524 30.0188 36.3522 29.9982 36.3522C28.551 36.3522 27.3201 37.4162 27.1193 38.8508C27.1015 38.9732 27.0932 39.1042 27.0932 39.2577C27.0932 39.9053 26.5683 40.4303 25.9206 40.4303C25.2729 40.4303 24.748 39.9054 24.748 39.2577C24.748 38.9901 24.7642 38.7485 24.7975 38.5196C25.1597 35.9315 27.3845 34.007 29.9955 34.007C30.0329 34.007 30.0699 34.0074 30.1073 34.0082C32.8435 34.0605 35.1018 36.244 35.2461 38.9791C35.3218 40.4367 34.8119 41.8199 33.8104 42.8747C33.0964 43.6267 32.1727 44.1468 31.1738 44.3771V47.6055C31.1738 48.2533 30.6489 48.7781 30.0013 48.7781Z" fill="#020288"/>
</g>
</g>
</g>
</svg>
