<svg width="60" height="60" viewBox="0 0 60 60" fill="none" xmlns="http://www.w3.org/2000/svg">
<g clip-path="url(#clip0_2914_3978)">
<path d="M43.342 33.6561C51.0754 33.6561 57.3446 27.3869 57.3446 19.6535C57.3446 11.9201 51.0754 5.65088 43.342 5.65088C35.6085 5.65088 29.3394 11.9201 29.3394 19.6535C29.3394 27.3869 35.6085 33.6561 43.342 33.6561Z" fill="#FFF59B"/>
<path d="M59.6973 37.9571C57.009 34.9847 52.5788 34.3445 49.1554 36.4401L42.7579 40.4244C41.6606 37.073 38.5407 34.7156 34.9453 34.6678L28.4411 34.5355C24.76 32.3749 20.0303 33.2156 17.3106 36.5619C16.6098 37.4241 16.0349 38.2385 15.5946 38.9914H13.9261V38.109C13.9261 37.4618 13.4014 36.9371 12.7542 36.9371H1.17188C0.524648 36.9371 0 37.4618 0 38.109V51.9514C0 52.5986 0.524648 53.1233 1.17188 53.1233H12.7542C13.4014 53.1233 13.9261 52.5986 13.9261 51.9514V50.4515L30.0146 53.9839C31.1071 54.2287 32.2174 54.3492 33.3221 54.3492C36.1104 54.3492 38.8615 53.5819 41.1916 52.1116C41.2818 52.0548 51.1898 45.3379 59.4859 39.7132C59.7667 39.5227 59.9511 39.2202 59.9917 38.8834C60.0321 38.5466 59.9248 38.2087 59.6973 37.9571ZM11.5823 50.7795H2.34375V39.2809H11.5823V50.7795ZM39.9291 50.1367C37.1982 51.8555 33.7723 52.4241 30.5222 51.6957L13.9261 48.0519V41.3352H16.2896C16.7323 41.3352 17.1371 41.0858 17.3363 40.6904C17.7266 39.9154 18.3299 39.0237 19.1293 38.0401C21.1686 35.531 24.7534 34.9495 27.4679 36.6875C27.6497 36.8039 27.8602 36.8679 28.076 36.8722L34.9058 37.0111C37.483 37.0453 39.7173 38.7245 40.5179 41.1165H26.3441C25.6969 41.1165 25.1722 41.6411 25.1722 42.2884C25.1722 42.9356 25.6969 43.4602 26.3441 43.4602H41.9812C42.2003 43.4602 42.4148 43.3989 42.6008 43.283L50.3865 38.4343C52.4415 37.1765 55.0075 37.2941 56.9227 38.6191C50.5672 42.9281 40.3286 49.869 39.9291 50.1367Z" fill="#000077"/>
<path d="M7.99219 45.2395C7.34496 45.2395 6.82031 45.7642 6.82031 46.4114V47.2724C6.82031 47.9196 7.34496 48.4442 7.99219 48.4442C8.63942 48.4442 9.16407 47.9196 9.16407 47.2724V46.4114C9.16407 45.7642 8.63942 45.2395 7.99219 45.2395Z" fill="#000077"/>
<path d="M42.2604 27.0511V27.2164C42.2604 27.8637 42.785 28.3883 43.4323 28.3883C44.0795 28.3883 44.6041 27.8637 44.6041 27.2164V27.1405C47.1937 26.8126 48.3241 25.1283 48.5151 23.6244C48.7824 21.5198 47.4047 19.4969 45.1649 18.7052C44.9681 18.6356 44.7813 18.5689 44.6042 18.5052V14.7397C45.0681 14.881 45.3893 15.1173 45.547 15.3419C45.9187 15.8717 46.6495 15.9998 47.1794 15.628C47.7092 15.2563 47.8373 14.5254 47.4655 13.9956C46.913 13.2082 45.9112 12.5509 44.6041 12.3379V12.0903C44.6041 11.4431 44.0795 10.9185 43.4323 10.9185C42.785 10.9185 42.2604 11.4431 42.2604 12.0903V12.427C42.0824 12.4665 41.9015 12.5137 41.718 12.5689C40.2477 13.0119 39.1377 14.4403 39.0189 16.0425C38.9016 17.6245 39.744 18.9994 41.2723 19.7201C41.4889 19.8222 41.8284 19.9633 42.2605 20.1319V24.6409C41.6576 24.4608 41.1039 24.1589 40.7442 23.7123C40.3383 23.2083 39.6006 23.1288 39.0964 23.5349C38.5924 23.9409 38.513 24.6786 38.919 25.1826C39.7727 26.2431 41.0332 26.81 42.2604 27.0511ZM46.19 23.3292C46.0969 24.0633 45.5271 24.5721 44.6041 24.7657V21.001C45.8283 21.5263 46.2882 22.5555 46.19 23.3292ZM41.3562 16.2162C41.3994 15.6334 41.778 15.078 42.2604 14.8633V17.5951C41.4574 17.2115 41.3252 16.634 41.3562 16.2162Z" fill="#000077"/>
</g>
<defs>
<clipPath id="clip0_2914_3978">
<rect width="60" height="60" fill="white"/>
</clipPath>
</defs>
</svg>
