<svg width="24" height="24" viewBox="0 0 24 24" fill="none" xmlns="http://www.w3.org/2000/svg">
<circle cx="12" cy="12" r="12" fill="#11118E"/>
<path d="M11.7602 10.3248L10.8357 12.8261L9.82922 10.2336C9.67717 9.82327 9.2792 9.84603 9.2792 9.84603H8.41903L10.1278 13.9143C10.1278 13.9086 10.1278 13.9086 10.1219 13.9029C10.1219 13.9029 10.1278 13.9143 10.1278 13.9201C10.1335 13.9258 10.1335 13.9371 10.1335 13.9371L10.1278 13.9143C10.1863 14.0796 10.1686 14.1708 10.116 14.3303L10.0808 14.4331C9.88204 14.9116 9.60115 15.0427 9.01009 15.0142V15.0199L9.42554 16C10.192 15.9828 10.7654 15.7437 11.1516 14.8091L13.2055 9.84621H12.4388C12.4388 9.84621 12.4388 9.84621 12.4331 9.84621C12.3805 9.84603 11.9475 9.8575 11.7602 10.3248ZM14.0013 11.9658C14.0013 11.2422 14.4754 10.7408 15.0604 10.7408C15.6456 10.7408 16.1196 11.2422 16.1196 11.9658C16.1196 12.6723 15.6456 13.1624 15.0604 13.1624C14.4811 13.1567 14.0013 12.6723 14.0013 11.9658ZM12.9012 11.9545C12.9012 13.2079 13.8667 14.1423 15.0602 14.1423C16.2539 14.1423 17.2312 13.2079 17.2312 11.9545C17.2312 10.7008 16.2539 9.74942 15.0602 9.74942C13.8726 9.75497 12.9012 10.7066 12.9012 11.9545ZM5.30615 10.3476C4.99599 9.98297 4.522 9.75497 3.93701 9.75497C2.76078 9.75497 2 10.5583 2 11.6239V14.0455H2.35692C2.60266 14.0283 3.08254 13.9145 3.10003 13.2194V11.601C3.10003 11.1282 3.43946 10.8034 3.93683 10.8034C4.66245 10.8034 4.73847 11.3617 4.73847 11.601V14.0455H5.09539C5.34113 14.0283 5.81512 13.9145 5.83849 13.2251V11.6012C5.83849 11.1283 6.18971 10.8035 6.67529 10.8035C7.40091 10.8035 7.48283 11.3619 7.48283 11.6012V14.0457H7.83975C8.08548 14.0285 8.57125 13.9147 8.58285 13.2081V11.6241C8.58285 10.5245 7.8749 9.75515 6.6694 9.75515C6.1135 9.75497 5.62791 9.98279 5.30615 10.3476ZM18.7001 11.9658C18.7001 11.2992 19.1916 10.7636 19.8001 10.7636C20.4087 10.7636 20.9003 11.2821 20.9003 11.9658C20.9003 12.6324 20.4087 13.1454 19.8001 13.1454C19.1916 13.1452 18.7001 12.6153 18.7001 11.9658ZM18.4719 8C17.7229 8 17.6001 8.49005 17.5883 8.72934V14.0455H18.1206C18.5479 14.0511 18.6473 13.789 18.6473 13.641V13.6238V13.601C18.9806 13.943 19.4371 14.1368 19.9579 14.1368C21.0872 14.1368 22 13.1965 22 11.96C22 10.7179 21.0815 9.772 19.9579 9.772C19.4664 9.772 19.0217 9.94874 18.6997 10.2621V8H18.4719Z" fill="url(#paint0_linear_3003_3578)"/>
<defs>
<linearGradient id="paint0_linear_3003_3578" x1="2" y1="12" x2="22.0003" y2="12" gradientUnits="userSpaceOnUse">
<stop offset="0.36" stop-color="#6100A5"/>
<stop offset="0.4557" stop-color="#7001A0"/>
<stop offset="0.6409" stop-color="#980293"/>
<stop offset="0.8947" stop-color="#D9057E"/>
<stop offset="0.97" stop-color="#ED0677"/>
</linearGradient>
</defs>
</svg>
