<svg width="56" height="60" viewBox="0 0 56 60" fill="none" xmlns="http://www.w3.org/2000/svg">
<path d="M53.8342 33.1331C53.135 32.4331 52.2283 32.0151 51.2812 31.9558C50.5478 31.9107 49.8561 32.0798 49.2713 32.4399C47.3704 27.3161 42.5324 22.9955 35.8958 20.7972C35.2816 20.594 34.6184 20.9267 34.4148 21.5411C34.2113 22.1555 34.5444 22.8186 35.1588 23.022C42.8471 25.5687 47.815 31.1825 47.815 37.3237C47.815 41.1378 45.9037 44.8197 42.4333 47.6913C42.1945 47.889 42.0437 48.1731 42.0139 48.4817L41.1292 57.6563H35.9857L35.5809 52.9793C35.5507 52.6308 35.3666 52.3141 35.0785 52.1156C34.7908 51.9172 34.4291 51.8575 34.0926 51.9533C31.6126 52.6591 28.9946 53.017 26.3115 53.017C23.6405 53.017 22.1513 52.6763 19.6108 51.9533C19.2746 51.8576 18.9128 51.917 18.6249 52.1156C18.337 52.3141 18.1528 52.6308 18.1225 52.9793L17.7175 57.6563H12.5741L11.6893 48.4816C11.6595 48.173 11.5087 47.8888 11.2699 47.6911C8.78632 45.6361 5.84655 42.9194 5.15222 40.1276C5.03831 39.6699 4.66132 39.325 4.19515 39.2525L3.32972 39.1179V32.318L5.568 31.9699C5.92272 31.9147 6.23269 31.6999 6.40894 31.387C7.94573 28.6584 10.5011 26.3015 13.7988 24.571C14.3719 24.2703 14.5926 23.5619 14.2919 22.9888C13.9913 22.4158 13.2829 22.195 12.7098 22.4957C9.20901 24.3327 6.43718 26.8293 4.65886 29.7394L1.97784 30.1565C1.40702 30.2453 0.986084 30.7368 0.986084 31.3144V40.1217C0.986084 40.6994 1.40702 41.1909 1.97784 41.2796L3.10624 41.4551C4.14628 44.4229 6.80468 47.0057 9.40261 49.1861L10.3433 58.9407C10.4013 59.5415 10.9061 60 11.5098 60H18.7924C19.4003 60 19.9075 59.535 19.9599 58.9292L20.3361 54.5838C22.1733 55.0639 23.8432 55.3606 26.3114 55.3606C28.7237 55.3606 31.09 55.0921 33.3652 54.5615L33.7433 58.9291C33.7957 59.5348 34.3027 59.9999 34.9108 59.9999H42.1935C42.7972 59.9999 43.302 59.5414 43.36 58.9406L44.3012 49.1802C47.6259 46.2963 49.632 42.7066 50.0683 38.9029C50.5027 39.1042 50.9685 39.2246 51.4446 39.2545C51.523 39.2594 51.601 39.2617 51.6785 39.2617C52.5904 39.2617 53.4265 38.9235 54.0533 38.2963C55.4151 36.9333 55.3169 34.617 53.8342 33.1331ZM52.3952 36.64C52.1288 36.9066 51.7776 36.927 51.5908 36.9154C51.2144 36.8918 50.8446 36.7162 50.5494 36.4209C49.989 35.8599 49.8887 35.0125 50.3303 34.5705C50.5628 34.3377 50.8603 34.2926 51.056 34.2926C51.0846 34.2926 51.111 34.2936 51.1347 34.2951C51.5111 34.3186 51.881 34.4943 52.1762 34.7896C52.7365 35.3505 52.8369 36.1979 52.3952 36.64Z" fill="#000077"/>
<path d="M29.0527 0C21.1882 0 14.8127 6.37184 14.8127 14.2318C14.8127 15.3021 14.931 16.3448 15.155 17.3476C15.2241 17.3169 15.2943 17.288 15.3658 17.2608L19.5432 15.6715L21.1328 19.8568C21.8372 21.7117 21.1079 23.7588 19.4926 24.7798C22.0198 27.069 25.3732 28.4638 29.0527 28.4638C36.9171 28.4638 43.2926 22.092 43.2926 14.232C43.2926 6.37195 36.9172 0 29.0527 0V0Z" fill="#FFBDBC"/>
<path d="M12.7195 31.9224C12.0724 31.9224 11.5476 32.447 11.5476 33.0942V36.297C11.5476 36.9442 12.0724 37.4688 12.7195 37.4688C13.3666 37.4688 13.8914 36.9442 13.8914 36.297V33.0942C13.8914 32.447 13.3666 31.9224 12.7195 31.9224Z" fill="#000077"/>
<path d="M26.7043 17.6388C26.2982 17.1349 25.5603 17.0558 25.0564 17.4618C24.5525 17.8679 24.4732 18.6056 24.8794 19.1097C25.6137 20.0207 26.6808 20.524 27.733 20.7526V20.7663C27.733 21.4136 28.2578 21.9382 28.9049 21.9382C29.5277 21.9382 30.037 21.4522 30.0744 20.8388C31.9352 20.5479 33.2464 19.3391 33.4567 17.6823C33.697 15.7888 32.4629 13.9711 30.4554 13.2619C30.324 13.2155 30.1978 13.1706 30.0768 13.1271V10.2089C30.3284 10.3167 30.5064 10.4598 30.6034 10.598C30.9756 11.1277 31.7064 11.2556 32.2359 10.8837C32.7657 10.5119 32.8935 9.78084 32.5216 9.25127C32.0412 8.56713 31.1873 7.99104 30.0768 7.7774V7.69678C30.0768 7.04955 29.552 6.5249 28.9049 6.5249C28.2578 6.5249 27.733 7.04955 27.733 7.69678V7.86107C27.6157 7.88955 27.4972 7.92166 27.3773 7.95775C26.0444 8.359 25.0384 9.65123 24.931 11.1001C24.8246 12.5356 25.5868 13.7817 26.97 14.4337C27.1426 14.515 27.4037 14.6243 27.733 14.754V18.323C27.3219 18.173 26.9542 17.9489 26.7043 17.6388ZM31.1317 17.3874C31.067 17.8976 30.6912 18.2673 30.0768 18.4453V15.6494C30.8939 16.091 31.2029 16.8258 31.1317 17.3874ZM27.2684 11.2735C27.2944 10.9214 27.478 10.5832 27.733 10.376V12.1806C27.3966 11.9536 27.2405 11.6494 27.2684 11.2735Z" fill="#000077"/>
<path d="M22.2283 19.4407L20.6389 15.2554C20.5285 14.9647 20.3071 14.7298 20.0235 14.6024C19.7397 14.475 19.4171 14.4655 19.1267 14.5761L14.9493 16.1654C12.232 17.1993 10.8605 20.251 11.8924 22.9682L12.5955 24.8195C12.8253 25.4245 13.5016 25.7289 14.1071 25.499C14.7121 25.2692 15.0164 24.5924 14.7866 23.9874L14.0834 22.136C13.51 20.6263 14.2723 18.9306 15.7826 18.356L18.8642 17.1837L20.0374 20.2729C20.6108 21.7826 19.8486 23.4783 18.3383 24.0529C17.7334 24.283 17.4295 24.96 17.6596 25.5648C17.8376 26.0326 18.2827 26.3203 18.7552 26.3203C18.8937 26.3203 19.0346 26.2956 19.1717 26.2435C21.8889 25.2095 23.2602 22.1578 22.2283 19.4407Z" fill="#000077"/>
<path d="M37.3057 28.1817C31.9668 25.9439 25.8428 25.944 20.5039 28.1817C19.9069 28.4319 19.6259 29.1186 19.8761 29.7155C20.1263 30.3124 20.8133 30.5933 21.4098 30.3433C26.1732 28.3469 31.6368 28.3469 36.3999 30.3433C36.5479 30.4052 36.7013 30.4347 36.8523 30.4347C37.3103 30.4347 37.7454 30.1643 37.9336 29.7155C38.1837 29.1186 37.9026 28.4319 37.3057 28.1817Z" fill="#000077"/>
</svg>
