<svg width="60" height="60" viewBox="0 0 60 60" fill="none" xmlns="http://www.w3.org/2000/svg">
<g clip-path="url(#clip0_3112_4046)">
<path d="M31.6816 37.4606L36.6719 32.4703L42.4938 38.2922L37.5035 43.2825L31.6816 37.4606Z" fill="#B2F0FB"/>
<path d="M16.7129 22.4843L21.7032 17.494L27.525 23.3159L22.5348 28.3061L16.7129 22.4843Z" fill="#B2F0FB"/>
<path d="M40.6394 25.8817C49.687 20.6869 45.5494 13.2677 40.6394 16.6188C35.7294 13.2677 31.5918 20.6868 40.6394 25.8817Z" fill="#B2F0FB"/>
<path d="M59.997 4.97061C59.9047 1.0494 56.1984 -1.36041 52.2331 0.831885C48.2577 -1.36629 44.5612 1.06034 44.4694 4.97049C44.4305 6.62024 45.0524 10.8664 51.6474 14.653C52.0098 14.8612 52.4562 14.8615 52.8188 14.653C59.4138 10.8665 60.0357 6.62048 59.997 4.97061ZM52.2331 12.2637C48.775 10.1258 46.7644 7.45182 46.8214 5.0259C46.856 3.55414 47.7438 2.35506 49.2396 2.35506C49.9613 2.35506 50.7671 2.63645 51.57 3.1844C51.97 3.45732 52.4964 3.45732 52.8962 3.1844C54.1358 2.33847 55.3823 2.12802 56.3157 2.60715C57.122 3.021 57.6189 3.92528 57.6448 5.02602C57.7019 7.45194 55.6912 10.126 52.2331 12.2637Z" fill="#020288"/>
<path d="M37.5121 31.6381C37.2915 31.4175 36.9922 31.2935 36.6803 31.2935C36.6684 31.2959 36.2165 31.27 35.8484 31.6381L19.6279 47.8586C17.5592 49.9273 14.2104 49.9277 12.1414 47.8586C10.0775 45.7946 10.0775 42.4362 12.1414 40.3722L28.362 24.1517C28.8215 23.6923 28.8215 22.9474 28.3621 22.4879L22.5393 16.6651C22.08 16.2059 21.3349 16.2058 20.8755 16.6651L4.65507 32.8858C-1.55126 39.092 -1.55208 49.1378 4.65495 55.3451C10.861 61.5512 20.9071 61.5523 27.1141 55.3451L43.3347 39.1246C43.794 38.6652 43.794 37.9203 43.3347 37.4608L37.5121 31.6381ZM6.3187 34.5495L21.7073 19.1609L25.8664 23.32L10.4778 38.7086C7.74047 41.4461 7.54389 45.6749 9.70984 48.6266L5.52312 52.8135C1.07583 47.5338 1.28063 39.5875 6.3187 34.5495ZM25.4506 53.6814C20.4122 58.7199 12.4655 58.9236 7.18675 54.4771L11.3735 50.2903C14.3252 52.4563 18.5543 52.2595 21.2915 49.5222L36.6803 34.1336L40.8393 38.2926L25.4506 53.6814Z" fill="#020288"/>
<path d="M31.4214 14.9497L38.4796 7.89144C39.1253 7.24561 38.8189 6.13969 37.9331 5.91842L35.2433 5.24588L37.3032 3.18593C37.7626 2.72655 37.7626 1.98167 37.3032 1.52218C36.8439 1.06292 36.099 1.06292 35.6395 1.52218L32.1104 5.05131C31.4647 5.69714 31.7711 6.80305 32.6569 7.02433L35.3467 7.69686L29.7576 13.286C29.2982 13.7453 29.2982 14.4902 29.7576 14.9497C30.2171 15.4092 30.9619 15.4091 31.4214 14.9497Z" fill="#020288"/>
<path d="M55.5786 29.4459L52.8888 28.7733L54.9488 26.7134C55.4081 26.254 55.4081 25.5091 54.9488 25.0496C54.4894 24.5904 53.7445 24.5904 53.285 25.0496L49.7559 28.5788C49.1102 29.2246 49.4166 30.3305 50.3024 30.5519L52.9922 31.2244L47.4031 36.8135C46.9438 37.2729 46.9438 38.0178 47.4031 38.4773C47.8626 38.9367 48.6074 38.9367 49.0669 38.4773L56.1251 31.419C56.4248 31.1193 56.54 30.6815 56.427 30.2732C56.3138 29.8646 55.9897 29.5486 55.5786 29.4459Z" fill="#020288"/>
</g>
<defs>
<clipPath id="clip0_3112_4046">
<rect width="60" height="60" fill="white"/>
</clipPath>
</defs>
</svg>
