<svg width="24" height="24" viewBox="0 0 24 24" fill="none" xmlns="http://www.w3.org/2000/svg">
<path d="M12 24C18.6274 24 24 18.6274 24 12C24 5.37258 18.6274 0 12 0C5.37258 0 0 5.37258 0 12C0 18.6274 5.37258 24 12 24Z" fill="#2CA01C"/>
<path d="M3.33325 12C3.33325 14.5866 5.41325 16.6666 7.99992 16.6666H8.66659V14.9333H7.99992C6.37325 14.9333 5.06659 13.6266 5.06659 12C5.06659 10.3733 6.37325 9.06663 7.99992 9.06663H9.59992V18.1333C9.59992 19.0933 10.3733 19.8666 11.3333 19.8666V7.3333H7.99992C5.41325 7.3333 3.33325 9.4133 3.33325 12ZM15.9999 7.3333H15.3333V9.06663H15.9999C17.6266 9.06663 18.9333 10.3733 18.9333 12C18.9333 13.6266 17.6266 14.9333 15.9999 14.9333H14.3999V5.86663C14.3999 4.90663 13.6266 4.1333 12.6666 4.1333V16.6666H15.9999C18.5866 16.6666 20.6666 14.5866 20.6666 12C20.6666 9.4133 18.5866 7.3333 15.9999 7.3333Z" fill="white"/>
</svg>
