<svg width="120" height="120" viewBox="0 0 120 120" fill="none" xmlns="http://www.w3.org/2000/svg">
<g filter="url(#filter0_d_2914_3715)">
<circle cx="60" cy="50" r="30" fill="url(#paint0_linear_2914_3715)"/>
</g>
<path d="M57.8709 50.58C57.8709 51.1533 58.0709 51.6267 58.4709 52C58.8709 52.3733 59.3842 52.56 60.0109 52.56C60.6509 52.56 61.1509 52.3867 61.5109 52.04C61.8842 51.68 62.0709 51.24 62.0709 50.72C62.0709 49.8933 61.7775 49.3133 61.1909 48.98C60.6175 48.6333 60.0375 48.46 59.4509 48.46C59.0642 48.46 58.6509 48.5133 58.2109 48.62L57.1709 47.3L61.1109 43.76H55.2109V41H64.6309L64.6509 44.18L61.8309 46.64C62.7509 46.84 63.5042 47.28 64.0909 47.96C64.6775 48.64 64.9709 49.5267 64.9709 50.62C64.9709 51.38 64.8175 52.06 64.5109 52.66C64.2175 53.26 63.8242 53.74 63.3309 54.1C62.8509 54.4467 62.3242 54.7133 61.7509 54.9C61.1909 55.0733 60.6109 55.16 60.0109 55.16C58.6109 55.16 57.4109 54.7133 56.4109 53.82C55.4242 52.9133 54.9309 51.8333 54.9309 50.58H57.8709Z" fill="white"/>
<defs>
<filter id="filter0_d_2914_3715" x="0" y="0" width="120" height="120" filterUnits="userSpaceOnUse" color-interpolation-filters="sRGB">
<feFlood flood-opacity="0" result="BackgroundImageFix"/>
<feColorMatrix in="SourceAlpha" type="matrix" values="0 0 0 0 0 0 0 0 0 0 0 0 0 0 0 0 0 0 127 0" result="hardAlpha"/>
<feOffset dy="10"/>
<feGaussianBlur stdDeviation="15"/>
<feColorMatrix type="matrix" values="0 0 0 0 0.329412 0 0 0 0 0.8 0 0 0 0 0.686275 0 0 0 0.25 0"/>
<feBlend mode="normal" in2="BackgroundImageFix" result="effect1_dropShadow_2914_3715"/>
<feBlend mode="normal" in="SourceGraphic" in2="effect1_dropShadow_2914_3715" result="shape"/>
</filter>
<linearGradient id="paint0_linear_2914_3715" x1="60" y1="20" x2="60" y2="80" gradientUnits="userSpaceOnUse">
<stop stop-color="#54CC8B"/>
<stop offset="1" stop-color="#54CCAF"/>
</linearGradient>
</defs>
</svg>
