<svg width="60" height="60" viewBox="0 0 60 60" fill="none" xmlns="http://www.w3.org/2000/svg">
<path d="M21.688 35.1562C24.624 35.1562 27.0125 37.5448 27.0125 40.4808V45.733H12.7754V40.4808C12.7754 37.5448 15.1639 35.1562 18.0999 35.1562H21.688Z" fill="#A4FCC4"/>
<path d="M18.0999 24.8438C15.1639 24.8438 12.7754 22.4553 12.7754 19.5192V16.0921H27.0124V19.5192C27.0124 22.4553 24.6239 24.8438 21.6878 24.8438H18.0999Z" fill="#A4FCC4"/>
<path d="M44.9117 10.6546L46.8276 12.2187C47.0383 12.3907 47.3006 12.4828 47.5687 12.4828C47.6321 12.4828 47.6959 12.4777 47.7594 12.4672C48.0911 12.4125 48.3835 12.2179 48.562 11.9327L50.9132 8.17724C51.2567 7.62868 51.0904 6.90552 50.5419 6.56216C49.9929 6.21845 49.2699 6.38485 48.9268 6.93353L47.2806 9.56286L46.394 8.83911C45.8926 8.42954 45.1544 8.50442 44.7452 9.00575C44.3358 9.50708 44.4104 10.2454 44.9117 10.6546Z" fill="#020288"/>
<path d="M47.7866 39.1223C52.8167 39.1223 56.909 35.03 56.909 30C56.909 24.97 52.8167 20.8777 47.7866 20.8777C45.0989 20.8777 42.6791 22.046 41.0081 23.9014V15.2207C42.6791 17.0761 45.0989 18.2445 47.7866 18.2445C52.8167 18.2445 56.909 14.1523 56.909 9.12223C56.909 4.09219 52.8167 0 47.7866 0C45.0934 0 42.669 1.17316 40.9978 3.03527C40.9214 2.46199 40.4305 2.01961 39.8364 2.01961C39.1893 2.01961 38.6645 2.54437 38.6645 3.19148V28.8281H29.0711C29.4885 28.4937 29.8837 28.1256 30.2534 27.7249C32.2443 25.5674 33.3408 22.6532 33.3408 19.5192V10.2826H35.5249C36.1721 10.2826 36.6968 9.75785 36.6968 9.11074C36.6968 8.46363 36.1721 7.93887 35.5249 7.93887H4.26318C3.61607 7.93887 3.09131 8.46363 3.09131 9.11074C3.09131 9.75785 3.61607 10.2826 4.26318 10.2826H6.44744V19.5191C6.44744 22.653 7.54385 25.5673 9.53486 27.7248C10.4064 28.6692 11.419 29.4333 12.533 29.9999C11.419 30.5665 10.4064 31.3305 9.53486 32.275C7.54396 34.4325 6.44744 37.3467 6.44744 40.4807V49.7171H4.26318C3.61607 49.7171 3.09131 50.2419 3.09131 50.889C3.09131 51.5361 3.61607 52.0609 4.26318 52.0609H35.5248C36.1719 52.0609 36.6967 51.5361 36.6967 50.889C36.6967 50.2419 36.1719 49.7171 35.5248 49.7171H33.3407V40.4807C33.3407 37.3467 32.2443 34.4325 30.2533 32.275C29.8835 31.8743 29.4885 31.5062 29.071 31.1718H38.6644V56.8084C38.6644 57.4555 39.1892 57.9803 39.8363 57.9803C40.4305 57.9803 40.9214 57.5379 40.9977 56.9646C42.6692 58.8268 45.0934 60 47.7866 60C52.8167 60 56.909 55.9077 56.909 50.8777C56.909 45.8476 52.8167 41.7554 47.7866 41.7554C45.0989 41.7554 42.6791 42.9238 41.0081 44.7792V36.0984C42.6791 37.954 45.099 39.1223 47.7866 39.1223ZM47.7866 2.34375C51.5244 2.34375 54.5652 5.38453 54.5652 9.12234C54.5652 12.86 51.5244 15.9008 47.7866 15.9008C44.0489 15.9008 41.0081 12.86 41.0081 9.12234C41.0083 5.38453 44.049 2.34375 47.7866 2.34375ZM47.7866 44.0992C51.5244 44.0992 54.5652 47.14 54.5652 50.8777C54.5652 54.6155 51.5244 57.6562 47.7866 57.6562C44.0489 57.6562 41.0081 54.6155 41.0081 50.8777C41.0083 47.1401 44.049 44.0992 47.7866 44.0992ZM47.7866 23.2214C51.5244 23.2214 54.5652 26.2622 54.5652 30C54.5652 33.7378 51.5244 36.7786 47.7866 36.7786C44.0489 36.7786 41.0081 33.7378 41.0081 30C41.0081 26.2622 44.049 23.2214 47.7866 23.2214ZM30.9969 40.4809V49.7174H8.79119V40.4809C8.79119 35.1739 12.5412 31.1719 17.5142 31.1719C18.1613 31.1719 18.686 30.6471 18.686 30C18.686 29.3529 18.1613 28.8281 17.5142 28.8281C12.5412 28.8281 8.79119 24.8262 8.79119 19.5191V10.2826H30.9969V19.5191C30.9969 24.8261 27.2468 28.8281 22.2738 28.8281C21.6267 28.8281 21.102 29.3529 21.102 30C21.102 30.6471 21.6267 31.1719 22.2738 31.1719C27.2468 31.1719 30.9969 35.1738 30.9969 40.4809Z" fill="#020288"/>
<path d="M44.9117 31.5323L46.8276 33.0965C47.0383 33.2685 47.3006 33.3606 47.5687 33.3606C47.6321 33.3606 47.6959 33.3555 47.7593 33.345C48.0911 33.2903 48.3835 33.0957 48.562 32.8105L50.9132 29.0549C51.2567 28.5062 51.0904 27.7832 50.5419 27.4398C49.9932 27.0961 49.2699 27.2625 48.9268 27.8112L47.2806 30.4407L46.394 29.7168C45.8926 29.3072 45.1544 29.3821 44.7452 29.8834C44.3358 30.3848 44.4104 31.1229 44.9117 31.5323Z" fill="#020288"/>
<path d="M44.9117 52.4101L46.8276 53.9742C47.0383 54.1462 47.3006 54.2383 47.5687 54.2383C47.6321 54.2383 47.6959 54.2331 47.7594 54.2227C48.0911 54.168 48.3835 53.9733 48.562 53.6882L50.9132 49.9327C51.2567 49.3842 51.0904 48.661 50.5419 48.3176C49.9929 47.9738 49.2699 48.1403 48.9268 48.689L47.2806 51.3183L46.394 50.5946C45.8926 50.1851 45.1544 50.2599 44.7452 50.7612C44.3358 51.2626 44.4104 52.0008 44.9117 52.4101Z" fill="#020288"/>
</svg>
