<svg width="60" height="60" viewBox="0 0 60 60" fill="none" xmlns="http://www.w3.org/2000/svg">
<path d="M52.318 0H11.8008C11.1537 0 10.6289 0.524648 10.6289 1.17188V31.4585C10.6289 32.1057 11.1537 32.6304 11.8008 32.6304C12.4479 32.6304 12.9727 32.1057 12.9727 31.4585V2.34375H51.1461V57.6562H11.8008C11.1537 57.6562 10.6289 58.1809 10.6289 58.8281C10.6289 59.4754 11.1537 60 11.8008 60H52.318C52.9651 60 53.4899 59.4754 53.4899 58.8281V1.17188C53.4899 0.524648 52.9652 0 52.318 0Z" fill="#000077"/>
<path d="M44.3898 21.8293H19.7288C19.0817 21.8293 18.5569 22.354 18.5569 23.0012C18.5569 23.6484 19.0817 24.1731 19.7288 24.1731H44.3898C45.0369 24.1731 45.5617 23.6484 45.5617 23.0012C45.5617 22.354 45.0371 21.8293 44.3898 21.8293Z" fill="#000077"/>
<path d="M44.3899 28.1575H28.4465C27.7994 28.1575 27.2747 28.6821 27.2747 29.3293C27.2747 29.9766 27.7994 30.5012 28.4465 30.5012H44.3899C45.037 30.5012 45.5618 29.9766 45.5618 29.3293C45.5618 28.6821 45.0371 28.1575 44.3899 28.1575Z" fill="#000077"/>
<path d="M44.3898 34.4856H30.3613C29.7142 34.4856 29.1895 35.0102 29.1895 35.6575C29.1895 36.3047 29.7142 36.8293 30.3613 36.8293H44.3898C45.0369 36.8293 45.5617 36.3047 45.5617 35.6575C45.5617 35.0102 45.0371 34.4856 44.3898 34.4856Z" fill="#000077"/>
<path d="M44.3897 48.1289H41.822C41.1749 48.1289 40.6501 48.6536 40.6501 49.3008C40.6501 49.948 41.1749 50.4727 41.822 50.4727H44.3897C45.0368 50.4727 45.5616 49.948 45.5616 49.3008C45.5616 48.6536 45.0369 48.1289 44.3897 48.1289Z" fill="#000077"/>
<path d="M44.3899 42.7134H38.4399C37.7928 42.7134 37.2681 43.238 37.2681 43.8853C37.2681 44.5325 37.7928 45.0571 38.4399 45.0571H44.3899C45.037 45.0571 45.5618 44.5325 45.5618 43.8853C45.5618 43.238 45.0371 42.7134 44.3899 42.7134Z" fill="#000077"/>
<path d="M6.5105 27.7576V60H32.9472V27.7576H6.5105ZM28.1615 55.2144H11.2961V42.8013H28.1615V55.2144ZM28.1615 38.2157H11.2961V32.5432H28.1615V38.2157Z" fill="#B2F0FB"/>
<path d="M28.1616 41.6296H11.2961C10.649 41.6296 10.1243 42.1543 10.1243 42.8015V55.2146C10.1243 55.8618 10.649 56.3865 11.2961 56.3865H28.1616C28.8088 56.3865 29.3335 55.8618 29.3335 55.2146V42.8015C29.3335 42.1543 28.8088 41.6296 28.1616 41.6296ZM26.9898 47.8952H20.9007V43.9734H26.9898V47.8952ZM18.557 43.9734V47.8952H12.468V43.9734H18.557ZM12.468 50.2389H18.557V54.0427H12.468V50.2389ZM20.9007 54.0427V50.2389H26.9898V54.0427H20.9007Z" fill="#000077"/>
<path d="M28.1616 31.3713H11.2961C10.649 31.3713 10.1243 31.896 10.1243 32.5432V38.2158C10.1243 38.863 10.649 39.3877 11.2961 39.3877H28.1616C28.8088 39.3877 29.3335 38.863 29.3335 38.2158V32.5432C29.3335 31.896 28.8088 31.3713 28.1616 31.3713ZM26.9898 37.0439H12.468V33.7151H26.9898V37.0439Z" fill="#000077"/>
<path d="M19.729 8.81909H44.3901V15.8802H19.729V8.81909Z" fill="#B2F0FB"/>
</svg>
