<svg width="60" height="60" viewBox="0 0 60 60" fill="none" xmlns="http://www.w3.org/2000/svg">
<g clip-path="url(#clip0_3422_4232)">
<path d="M40.509 30.4496C46.5945 30.4496 51.5278 25.5209 51.5278 19.4411C51.5278 13.3613 46.5945 8.43262 40.509 8.43262C34.4235 8.43262 29.4902 13.3613 29.4902 19.4411C29.4902 25.5209 34.4235 30.4496 40.509 30.4496Z" fill="#B2F0FB"/>
<path d="M41.8763 18.467C41.7593 18.4256 41.6468 18.3856 41.5383 18.3467V15.6191C41.7423 15.7159 41.8882 15.8374 41.9708 15.9553C42.3425 16.4851 43.0734 16.6135 43.6033 16.2416C44.1331 15.8699 44.2613 15.1391 43.8895 14.6092C43.4255 13.9477 42.6047 13.3895 41.5383 13.176V13.1312C41.5383 12.4841 41.0135 11.9594 40.3664 11.9594C39.7193 11.9594 39.1945 12.4841 39.1945 13.1312V13.2583C39.0908 13.284 38.9861 13.3127 38.8802 13.3446C37.5786 13.7368 36.5963 14.9991 36.4913 16.4141C36.3872 17.8174 37.1313 19.0352 38.4813 19.672C38.644 19.7488 38.8877 19.8513 39.1944 19.9725V23.3276C38.8218 23.1836 38.4943 22.9774 38.2756 22.7058C37.8696 22.2017 37.1319 22.1223 36.6278 22.5281C36.1238 22.9341 36.0442 23.6718 36.4501 24.1759C37.1575 25.0542 38.1817 25.5436 39.1945 25.7694C39.2046 26.4079 39.7253 26.9225 40.3662 26.9225C40.9781 26.9225 41.4804 26.4534 41.5334 25.8552C43.3297 25.5627 44.5941 24.387 44.7984 22.7786C45.0333 20.9313 43.8317 19.1583 41.8763 18.467ZM38.8287 16.5877C38.8507 16.2902 38.9924 16.0036 39.1945 15.8087V17.3807C38.9277 17.1755 38.8048 16.9098 38.8287 16.5877ZM42.4736 22.4834C42.4151 22.9438 42.0829 23.282 41.5383 23.4546V20.8795C42.264 21.3 42.539 21.9692 42.4736 22.4834Z" fill="#020288"/>
<path d="M58.7953 14.6989H57.4105C57.0346 13.3577 56.5007 12.0707 55.8155 10.8546L56.7946 9.87633C57.0147 9.65648 57.1383 9.35824 57.1383 9.04734C57.1383 8.73633 57.0147 8.43809 56.7946 8.21836L51.7406 3.16922C51.2831 2.71195 50.5418 2.71219 50.0842 3.16922L49.1039 4.14844C47.8862 3.46348 46.5974 2.92969 45.2543 2.5541V1.17188C45.2543 0.524766 44.7296 0 44.0824 0H36.9352C36.2881 0 35.7633 0.524766 35.7633 1.17188V2.5541C34.4202 2.92969 33.1314 3.46359 31.9137 4.14844L30.9335 3.16922C30.476 2.71219 29.7346 2.71207 29.277 3.16922L24.223 8.21836C24.0031 8.43809 23.8794 8.73633 23.8794 9.04734C23.8794 9.35824 24.0031 9.65648 24.223 9.87633L25.2021 10.8546C24.5171 12.0705 23.9829 13.3576 23.6071 14.6989H22.2222C21.5749 14.6989 21.0503 15.2237 21.0503 15.8708V23.0115C21.0503 23.6586 21.5749 24.1834 22.2222 24.1834H23.6071C23.9829 25.5246 24.5169 26.8117 25.2021 28.0277L24.223 29.006C24.0031 29.2259 23.8794 29.5241 23.8794 29.835C23.8794 30.146 24.0031 30.4443 24.223 30.664L29.277 35.7131C29.7347 36.1703 30.476 36.1702 30.9335 35.7131L31.9137 34.7338C33.1313 35.4187 34.4201 35.9525 35.7633 36.3281V37.7105C35.7633 38.3576 36.2881 38.8823 36.9352 38.8823H44.0824C44.7296 38.8823 45.2543 38.3576 45.2543 37.7105V36.3281C46.5975 35.9525 47.8863 35.4186 49.1039 34.7338L50.0842 35.7131C50.5417 36.1704 51.283 36.1702 51.7406 35.7131L56.7946 30.664C57.0147 30.4443 57.1383 30.146 57.1383 29.835C57.1383 29.5241 57.0147 29.2259 56.7946 29.006L55.8155 28.0276C56.5007 26.8117 57.0347 25.5247 57.4105 24.1834H58.7953C59.4424 24.1834 59.9672 23.6586 59.9672 23.0115V15.8708C59.9672 15.2236 59.4424 14.6989 58.7953 14.6989ZM57.6235 21.8395H56.4971C55.9479 21.8395 55.4726 22.2207 55.3532 22.7566C54.9713 24.471 54.2979 26.094 53.3515 27.5809C53.0564 28.0444 53.1232 28.6507 53.5119 29.0391L54.3083 29.8348L50.9124 33.2273L50.1143 32.4301C49.7261 32.0422 49.1207 31.9759 48.6576 32.27C47.1695 33.2155 45.5447 33.8885 43.828 34.2701C43.2919 34.3894 42.9105 34.8648 42.9105 35.4141V36.5384H38.1069V35.4141C38.1069 34.8648 37.7255 34.3894 37.1894 34.2701C35.4728 33.8884 33.8479 33.2155 32.3598 32.27C31.8966 31.9759 31.2914 32.0422 30.9029 32.4301L30.105 33.2273L26.7092 29.8348L27.5056 29.0391C27.8943 28.6507 27.961 28.0444 27.6659 27.5808C26.7195 26.094 26.0461 24.471 25.6642 22.7566C25.5448 22.2207 25.0694 21.8395 24.5203 21.8395H23.3939V17.0426H24.5203C25.0694 17.0426 25.5448 16.6614 25.6642 16.1255C26.0461 14.411 26.7196 12.788 27.6659 11.3013C27.961 10.8377 27.8943 10.2314 27.5056 9.84305L26.7092 9.04734L30.105 5.65477L30.9029 6.45187C31.2912 6.84 31.8966 6.90609 32.3596 6.61195C33.848 5.66637 35.4729 4.99336 37.1892 4.61203C37.7254 4.49285 38.1068 4.0173 38.1068 3.46805V2.34375H42.9103V3.46805C42.9103 4.0173 43.2918 4.49285 43.8279 4.61203C45.5442 4.99348 47.1692 5.66637 48.6576 6.61195C49.1206 6.90609 49.726 6.83977 50.1142 6.45187L50.9122 5.65477L54.3082 9.04734L53.5118 9.84305C53.1231 10.2314 53.0563 10.8377 53.3515 11.3013C54.2977 12.788 54.9712 14.411 55.3531 16.1255C55.4725 16.6614 55.9478 17.0426 56.4969 17.0426H57.6233V21.8395H57.6235Z" fill="#020288"/>
<path d="M28.8962 41.1204H28.0616C27.7956 40.2266 27.4382 39.365 26.9926 38.5441L27.5824 37.9549C27.8024 37.7351 27.926 37.4368 27.926 37.1259C27.926 36.8149 27.8024 36.5167 27.5824 36.2969L23.7558 32.4741C23.2982 32.0168 22.557 32.0169 22.0994 32.4741L21.5085 33.0642C20.6863 32.6188 19.8233 32.2612 18.9281 31.9955V31.163C18.9281 30.5159 18.4035 29.9911 17.7563 29.9911H12.3447C11.6974 29.9911 11.1728 30.5159 11.1728 31.163V31.9955C10.2776 32.2614 9.41463 32.6188 8.59244 33.0642L8.00158 32.4741C7.54408 32.0168 6.80275 32.017 6.34514 32.4741L2.5185 36.2967C2.29842 36.5164 2.17479 36.8147 2.17479 37.1257C2.17479 37.4366 2.29842 37.7348 2.51838 37.9547L3.10818 38.5439C2.66264 39.3649 2.30521 40.2264 2.0392 41.1202H1.20459C0.557363 41.1202 0.0327148 41.6449 0.0327148 42.292V47.6986C0.0327148 48.3457 0.557363 48.8705 1.20459 48.8705H2.0392C2.30521 49.7643 2.66264 50.6258 3.10818 51.4467L2.51838 52.0359C2.29842 52.2558 2.17479 52.554 2.17479 52.8649C2.17479 53.1759 2.29842 53.4742 2.5185 53.6939L6.34502 57.5168C6.80252 57.9738 7.54385 57.9737 8.00146 57.5169L8.59232 56.9266C9.41451 57.3721 10.2776 57.7296 11.1727 57.9954V58.8281C11.1727 59.4752 11.6973 60 12.3446 60H17.7562C18.4034 60 18.928 59.4752 18.928 58.8281V57.9956C19.8231 57.7297 20.6861 57.3723 21.5084 56.9269L22.0992 57.5171C22.5567 57.9742 23.2981 57.9741 23.7557 57.517L27.5823 53.6941C27.8023 53.4744 27.9259 53.1762 27.9259 52.8652C27.9259 52.5543 27.8023 52.256 27.5823 52.0362L26.9925 51.4469C27.4381 50.6259 27.7955 49.7645 28.0615 48.8707H28.8961C29.5433 48.8707 30.068 48.3459 30.068 47.6988V42.2923C30.0681 41.645 29.5435 41.1204 28.8962 41.1204ZM27.7244 46.5268H27.1561C26.6071 46.5268 26.1317 46.908 26.0122 47.4438C25.7303 48.7097 25.2331 49.908 24.5344 51.0059C24.2393 51.4693 24.306 52.0757 24.6947 52.464L25.0962 52.8652L22.9276 55.0316L22.5246 54.6289C22.1365 54.241 21.5312 54.1745 21.0681 54.4689C19.969 55.1669 18.7692 55.6638 17.5021 55.9457C16.966 56.065 16.5845 56.5404 16.5845 57.0896V57.6562H13.5165V57.0896C13.5165 56.5404 13.1351 56.065 12.599 55.9457C11.3318 55.6639 10.1321 55.1669 9.03295 54.4689C8.56971 54.1745 7.96443 54.241 7.57643 54.6289L7.17342 55.0316L5.00486 52.8652L5.40635 52.464C5.79506 52.0757 5.86174 51.4693 5.56666 51.0059C4.86799 49.9082 4.37076 48.7097 4.08881 47.4438C3.96939 46.908 3.49396 46.5268 2.94494 46.5268H2.3767V43.464H2.94494C3.49396 43.464 3.96939 43.0828 4.08881 42.547C4.37076 41.2812 4.86799 40.0828 5.56666 38.985C5.86174 38.5215 5.79506 37.9152 5.40635 37.5268L5.00486 37.1257L7.17342 34.9593L7.57643 35.3619C7.96455 35.7498 8.56982 35.8162 9.03307 35.522C10.1318 34.8239 11.3316 34.327 12.599 34.0452C13.1351 33.9259 13.5165 33.4505 13.5165 32.9012V32.3346H16.5844V32.9012C16.5844 33.4505 16.9658 33.9259 17.502 34.0452C18.7694 34.3269 19.9691 34.8239 21.0679 35.522C21.5311 35.8162 22.1363 35.7498 22.5245 35.3619L22.9275 34.9593L25.0961 37.1257L24.6946 37.5268C24.3059 37.9152 24.2392 38.5215 24.5343 38.985C25.233 40.0827 25.7302 41.2812 26.0121 42.547C26.1315 43.0828 26.607 43.464 27.156 43.464H27.7242V46.5268H27.7244Z" fill="#020288"/>
<path d="M15.0507 36.2589C10.2294 36.2589 6.30713 40.178 6.30713 44.9954C6.30713 49.8127 10.2295 53.7319 15.0507 53.7319C19.8719 53.7319 23.7943 49.8128 23.7943 44.9954C23.7943 40.1781 19.8719 36.2589 15.0507 36.2589ZM15.0507 51.3882C11.5219 51.3882 8.65088 48.5204 8.65088 44.9954C8.65088 41.4705 11.5219 38.6027 15.0507 38.6027C18.5796 38.6027 21.4506 41.4705 21.4506 44.9954C21.4506 48.5204 18.5796 51.3882 15.0507 51.3882Z" fill="#020288"/>
</g>
<defs>
<clipPath id="clip0_3422_4232">
<rect width="60" height="60" fill="white"/>
</clipPath>
</defs>
</svg>
